<?xml version="1.0" standalone="no"?>
<!DOCTYPE svg PUBLIC "-//W3C//DTD SVG 20010904//EN"
 "http://www.w3.org/TR/2001/REC-SVG-20010904/DTD/svg10.dtd">
<svg version="1.0" xmlns="http://www.w3.org/2000/svg"
 width="421.000000pt" height="421.000000pt" viewBox="0 0 421.000000 421.000000"
 preserveAspectRatio="xMidYMid meet">
<metadata>
Created by potrace 1.14, written by Peter Selinger 2001-2017
</metadata>
<g transform="translate(0.000000,421.000000) scale(0.100000,-0.100000)"
fill="#000000" stroke="none">
<path d="M2385 3875 c-38 -7 -106 -15 -150 -19 -160 -13 -202 -18 -283 -37
-159 -36 -280 -102 -389 -209 l-36 -35 6 40 c2 22 8 51 12 64 l8 23 -29 -18
c-38 -25 -74 -60 -74 -74 0 -5 -5 -10 -11 -10 -5 0 -8 -4 -5 -9 4 -5 2 -11 -3
-13 -6 -1 -12 -15 -15 -30 -2 -15 -7 -31 -9 -36 -3 -4 -8 -27 -12 -52 -9 -59
-11 -61 -53 -59 -70 3 -91 -1 -121 -27 -41 -34 -40 -51 4 -51 23 0 40 -6 50
-19 21 -27 18 -39 -10 -54 -14 -7 -40 -29 -58 -49 -33 -36 -94 -132 -89 -141
1 -3 -5 -25 -12 -50 -24 -73 -28 -107 -31 -266 -3 -156 7 -220 68 -417 15 -47
15 -48 -8 -63 -20 -13 -28 -28 -42 -84 -17 -67 7 -310 39 -396 24 -67 48 -88
88 -80 40 8 74 -25 90 -85 36 -145 99 -283 168 -368 68 -84 216 -224 271 -255
8 -5 20 -13 26 -18 5 -5 20 -16 32 -26 12 -10 39 -27 60 -38 21 -10 40 -22 43
-25 4 -5 31 -17 50 -24 3 -1 19 -7 35 -14 57 -25 138 -25 217 -1 146 44 373
178 500 295 45 42 110 119 117 139 2 6 7 13 10 16 16 14 114 230 104 230 -3 0
2 9 13 21 15 17 26 19 64 14 38 -5 49 -3 69 16 22 21 57 87 66 127 3 9 14 49
25 87 42 143 50 237 25 289 -10 20 -21 36 -25 36 -9 0 -8 19 1 35 4 6 10 24
14 40 12 44 12 45 15 50 1 3 3 8 5 13 1 4 7 21 14 37 7 17 14 35 15 40 1 6 4
15 7 20 6 9 21 69 35 135 5 27 5 226 -1 275 -13 109 -65 287 -104 360 -47 86
-55 99 -83 136 -30 40 -35 59 -16 59 16 0 -2 18 -33 34 -14 7 -47 59 -88 141
-36 72 -77 146 -91 164 -86 119 -151 173 -222 185 -20 3 -31 -1 -42 -19 -44
-67 -116 -115 -142 -95 -9 9 -11 17 -4 30 5 9 6 20 3 24 -3 3 0 6 7 6 7 0 11
3 7 6 -3 3 3 23 14 42 10 20 19 40 19 44 0 11 -41 8 -125 -7z"/>
</g>
</svg>
