<?xml version="1.0" standalone="no"?>
<!DOCTYPE svg PUBLIC "-//W3C//DTD SVG 20010904//EN"
 "http://www.w3.org/TR/2001/REC-SVG-20010904/DTD/svg10.dtd">
<svg version="1.0" xmlns="http://www.w3.org/2000/svg"
 width="421.000000pt" height="421.000000pt" viewBox="0 0 421.000000 421.000000"
 preserveAspectRatio="xMidYMid meet">
<metadata>
Created by potrace 1.14, written by Peter Selinger 2001-2017
</metadata>
<g transform="translate(0.000000,421.000000) scale(0.100000,-0.100000)"
fill="#000000" stroke="none">
<path d="M2388 3875 c-42 -7 -136 -18 -210 -25 -287 -25 -448 -86 -600 -228
l-48 -45 0 37 c0 21 5 46 10 57 15 28 0 23 -43 -12 -47 -39 -76 -94 -97 -184
l-16 -70 -73 -5 c-64 -4 -76 -8 -97 -33 -32 -37 -30 -48 5 -41 21 5 34 1 50
-15 29 -29 26 -46 -14 -71 -102 -63 -168 -226 -181 -452 -8 -130 7 -244 52
-401 20 -66 38 -144 41 -171 6 -50 6 -51 -14 -33 -11 9 -25 17 -31 17 -24 0
-11 -38 23 -67 34 -30 35 -32 35 -108 0 -66 3 -78 18 -82 15 -4 21 -21 30 -92
16 -118 16 -118 -15 -135 l-28 -15 36 6 c48 7 73 -18 94 -94 58 -209 120 -319
259 -459 135 -135 277 -238 406 -294 68 -29 162 -31 240 -5 160 53 392 196
509 315 86 86 127 150 180 279 49 118 55 125 108 117 36 -5 47 -2 70 19 l28
26 -36 -21 c-30 -17 -38 -18 -54 -7 -17 13 -17 16 4 80 13 37 27 67 32 67 5 0
9 8 9 17 0 9 6 24 14 32 12 13 46 142 46 173 0 10 76 49 83 42 2 -3 5 7 5 21
0 34 -23 43 -50 19 -21 -19 -21 -19 -15 11 4 17 11 51 16 77 6 25 31 102 56
169 59 160 69 222 62 383 -4 99 -12 159 -35 247 -36 142 -55 185 -127 295 -38
59 -54 92 -50 105 4 13 2 19 -9 19 -22 0 -59 53 -99 142 -93 203 -233 358
-324 358 -18 0 -33 -4 -33 -9 0 -29 -102 -111 -138 -111 -22 0 -18 44 9 101
16 33 29 63 29 65 0 6 -38 3 -122 -11z m-584 -880 c33 -9 98 -34 145 -57 72
-36 102 -58 186 -143 56 -55 110 -118 121 -140 23 -44 44 -57 44 -26 0 11 5
23 10 26 14 9 12 79 -5 180 -9 48 -14 90 -12 92 7 6 113 -70 163 -116 45 -43
117 -146 142 -203 11 -27 10 -28 -31 -38 -103 -25 -118 -32 -128 -54 -13 -27
3 -66 26 -66 7 0 44 7 81 16 100 23 102 21 135 -71 16 -44 29 -81 29 -82 0 -2
-46 -3 -102 -4 -67 -1 -94 -4 -78 -9 23 -7 23 -8 3 -9 -12 -1 -24 3 -27 8 -15
23 -177 -39 -189 -72 -3 -7 -17 0 -39 21 -61 58 -153 65 -199 16 -28 -29 -46
-31 -54 -4 -13 42 -150 110 -175 87 -10 -9 -11 -9 -5 2 6 11 2 13 -18 9 -16
-3 -24 -1 -20 5 3 6 -8 8 -30 5 -20 -2 -34 -1 -32 3 12 18 -230 25 -300 9
-103 -23 -106 -23 -103 9 1 17 7 27 14 24 15 -6 24 30 24 104 0 142 56 312
131 398 19 21 54 51 78 67 53 33 121 37 215 13z m1012 -157 c70 -77 92 -155
100 -353 3 -71 6 -149 8 -172 2 -24 3 -43 2 -43 -1 0 -16 4 -35 10 -19 5 -53
12 -75 15 -73 11 -75 12 -71 58 1 23 3 59 4 80 1 31 4 37 23 37 13 0 42 -19
69 -46 66 -65 93 -40 49 45 -18 36 -72 91 -89 91 -5 0 -11 63 -15 140 -4 78
-9 147 -13 155 -9 25 12 17 43 -17z m-996 -506 c41 -11 87 -24 101 -30 36 -14
77 -57 85 -88 14 -55 -55 -238 -116 -308 -36 -40 -97 -76 -130 -76 -11 0 -29
-6 -40 -12 -15 -10 -22 -10 -32 0 -6 6 -26 12 -43 12 -16 0 -55 7 -85 16 -30
9 -63 16 -72 17 -9 1 -14 5 -12 9 5 8 -12 12 -31 8 -5 -1 -7 2 -2 6 4 4 -3 19
-16 33 -28 30 -47 81 -47 124 0 30 1 30 16 11 8 -10 13 -14 10 -8 -3 6 5 32
18 58 13 25 20 48 16 51 -10 6 -43 -25 -58 -55 -10 -21 -11 -12 -7 56 10 142
19 167 68 190 45 20 275 12 377 -14z m983 -66 c92 -18 135 -39 147 -72 17 -44
9 -220 -10 -209 -4 2 -5 -6 -3 -18 3 -12 -4 -47 -14 -77 -27 -76 -77 -114
-174 -130 -122 -21 -244 3 -302 58 -30 28 -67 93 -85 152 -22 68 -33 181 -22
216 14 40 62 72 121 80 24 4 46 8 48 10 11 10 228 2 294 -10z m-585 -10 c6 -1
28 -17 47 -36 32 -31 35 -39 35 -90 0 -34 12 -93 30 -152 44 -140 104 -211
204 -240 56 -16 211 -16 269 1 51 15 132 78 143 113 4 12 12 27 18 34 9 9 12
2 11 -27 0 -22 -2 -39 -5 -39 -3 0 -6 -21 -7 -46 -1 -26 -17 -90 -35 -143 -18
-53 -32 -98 -33 -101 0 -3 -8 -16 -17 -30 -8 -14 -30 -52 -48 -85 -17 -32 -45
-77 -62 -100 -34 -44 -188 -195 -199 -195 -4 0 -14 -6 -21 -13 -7 -7 -39 -32
-70 -56 -32 -24 -58 -47 -58 -52 0 -5 -7 -9 -14 -9 -8 0 -41 -16 -72 -34 -32
-19 -61 -33 -66 -30 -4 3 -8 1 -8 -4 0 -10 -10 -14 -90 -38 -62 -18 -96 -17
-160 6 -30 11 -59 21 -65 23 -5 1 -12 4 -15 7 -3 3 -23 18 -45 35 -22 16 -43
34 -47 39 -4 6 -8 8 -8 4 0 -3 -18 12 -40 34 -22 23 -40 38 -40 34 0 -3 -21
18 -47 47 -27 29 -65 66 -85 82 -20 17 -37 35 -38 41 0 7 -6 14 -13 17 -14 5
-108 142 -145 212 -47 87 -74 164 -76 213 -1 12 -7 22 -14 22 -7 0 -11 4 -8 9
3 5 2 32 -4 60 -5 28 -10 114 -12 190 -1 109 2 144 13 157 12 16 12 17 -1 9
-12 -6 -13 -5 -2 6 6 7 12 20 12 28 0 14 -1 14 -10 1 -8 -13 -10 -12 -10 3 0
9 5 17 11 17 6 0 8 9 4 20 -4 11 -2 20 4 20 7 0 11 -34 11 -93 0 -104 24 -193
63 -235 71 -78 314 -121 419 -74 23 10 59 36 78 58 40 44 105 155 115 197 7
26 19 35 28 20 2 -5 1 -1 -1 7 -10 29 -1 94 14 112 26 28 96 58 124 52 14 -3
31 -6 38 -8z"/>
<path d="M1611 2618 c-65 -18 -131 -87 -131 -137 0 -29 9 -27 70 14 46 31 60
35 115 35 34 0 109 -12 165 -26 99 -25 104 -25 117 -8 7 10 13 30 13 45 0 24
-7 30 -55 48 -99 37 -224 50 -294 29z"/>
<path d="M1660 2275 c-76 -22 -116 -43 -143 -75 -14 -16 -30 -30 -36 -30 -5 0
-13 -5 -17 -12 -4 -7 -3 -8 5 -4 9 6 10 0 5 -20 l-7 -28 44 36 c24 19 54 41
66 47 22 11 23 11 17 -33 -12 -86 -7 -92 101 -106 85 -10 99 -10 121 4 13 9
24 21 24 26 0 6 4 10 9 10 5 0 7 -10 3 -22 -5 -21 -4 -22 11 -9 22 17 23 109
2 137 -24 31 -17 37 16 13 17 -12 44 -49 61 -83 l30 -61 -7 45 c-13 95 -121
182 -224 179 -20 0 -56 -7 -81 -14z m49 -74 c13 -24 -9 -57 -33 -48 -23 9 -31
34 -16 52 17 20 37 19 49 -4z"/>
<path d="M2470 2200 c-67 -36 -137 -129 -109 -146 5 -3 9 2 9 11 0 20 80 100
108 107 22 6 22 6 -2 -22 -29 -35 -42 -107 -25 -144 12 -25 14 -26 109 -26 84
0 99 3 115 20 24 26 35 25 35 -2 1 -50 23 15 24 69 l0 53 59 -57 c58 -57 59
-57 55 -28 -2 17 -10 35 -18 42 -8 7 -11 13 -6 13 22 0 -70 74 -126 100 -77
37 -171 41 -228 10z m94 -65 c9 -24 -4 -45 -29 -45 -29 0 -38 13 -30 40 8 24
50 27 59 5z"/>
<path d="M1940 1709 c0 -34 28 -84 58 -101 65 -38 209 -45 274 -12 32 16 58
61 58 99 0 32 -16 33 -24 0 -4 -14 -21 -35 -39 -46 -27 -17 -45 -20 -122 -17
-107 5 -162 26 -177 70 -12 33 -28 37 -28 7z"/>
<path d="M1690 1544 c0 -10 6 -14 14 -11 10 4 13 1 10 -7 -3 -7 12 -45 32 -85
30 -58 51 -85 108 -132 67 -55 82 -65 139 -89 73 -30 185 -39 248 -19 131 42
247 133 284 222 10 26 25 47 32 47 7 0 13 7 13 15 0 8 -7 15 -15 15 -8 0 -15
-4 -15 -9 0 -9 -44 -8 -142 5 -63 8 -185 -5 -167 -18 20 -14 -196 -1 -251 14
-25 7 -49 16 -55 19 -18 12 -119 28 -157 25 -23 -2 -43 2 -49 10 -15 19 -29
18 -29 -2z m550 -130 l45 -7 -40 -8 c-71 -14 -366 22 -336 40 10 7 242 -11
331 -25z m-108 -198 c24 1 36 -2 32 -8 -9 -14 -102 -4 -117 11 -9 10 -5 11 18
4 17 -4 47 -7 67 -7z"/>
<path d="M1799 1253 c26 -49 187 -177 235 -188 76 -17 138 -21 170 -10 79 27
212 121 256 180 l15 20 -24 -20 c-13 -11 -26 -19 -30 -19 -3 1 -5 -2 -3 -7 1
-5 -3 -9 -9 -9 -6 0 -41 -19 -77 -42 -36 -24 -68 -43 -71 -44 -3 0 -24 -9 -46
-19 -56 -25 -157 -16 -229 21 -30 15 -53 31 -50 36 3 5 2 7 -3 6 -5 -2 -22 9
-38 24 -104 95 -113 101 -96 71z"/>
</g>
</svg>
